<svg version="1" xmlns="http://www.w3.org/2000/svg" width="648" height="648" viewBox="0 0 486.000000 486.000000"><path d="M300.8 81.5l-.3 81.7-3-2.7c-5.5-4.9-16.9-12.7-23.6-16-7.8-4-21.7-8.7-30.6-10.5-7.1-1.4-26.7-1.8-36.3-.7-27.6 3.2-51 14.7-71.6 35.2C107.8 195.7 92 234.1 87.3 285c-1.2 13.8-.6 52.3 1.1 62 .2 1.4.7 5 1.1 8 2.2 17.9 8.6 42.4 14.2 54.9 7.4 16.4 10.8 22.4 18.7 33.1 12.5 16.9 29 29.1 48.7 35.9 7.6 2.7 12.4 3.8 24.4 5.7 5.1.8 27.8.8 33 0 2.2-.3 5.6-.9 7.5-1.2 13.7-2.2 28.3-8.2 40.8-16.8 8.6-5.8 21.2-17.7 26.2-24.8 1.8-2.7 3.6-4.8 3.9-4.8.3 0 .7 1.2.7 2.8.2 2.7 2.9 24.2 4 31.5l.6 3.7 43.6-.2 43.7-.3V242.7c0-231 0-231.7-2-231.8-1.1 0-2.7-.2-3.6-.4-.9-.1-4.7-.6-8.5-.9-3.8-.4-8.2-.8-9.9-1-3.3-.5-12.4-1.4-20-2.1-2.7-.3-8.6-.9-13-1.5-4.4-.5-10.7-1.2-14-1.5-3.3-.3-7.3-.8-9-1-1.6-.2-6.1-.7-10-1.1-3.8-.3-7.3-.8-7.7-1.1-.5-.2-.9 36.3-1 81.2zM266.6 207c8.5 2.9 19.4 10.1 27.7 18.5l6.7 6.9v143.9l-5.1 6.8c-17.3 23.4-41.9 34.2-64.4 28.4-19.9-5.2-32.3-21-38-48.3-3.2-15.6-3.9-25.1-4-53.2 0-22 .3-28 2.1-40 4.5-30.4 17.4-52 36.2-61 10.8-5.2 26.8-6 38.8-2z"/></svg>