<?xml version="1.0" encoding="UTF-8"?>
<!DOCTYPE svg PUBLIC "-//W3C//DTD SVG 1.1//EN" "http://www.w3.org/Graphics/SVG/1.1/DTD/svg11.dtd">
<svg xmlns="http://www.w3.org/2000/svg" xml:space="preserve" width="120px" height="35px" version="1.1" style="shape-rendering:geometricPrecision; text-rendering:geometricPrecision; image-rendering:optimizeQuality; fill-rule:evenodd; clip-rule:evenodd"
viewBox="0 0 12102 3560" xmlns:xlink="http://www.w3.org/1999/xlink">
 <defs>
  <style type="text/css">
   <![CDATA[
    .str0 {stroke:#000000;stroke-width:201.64}
    .fil1 {fill:none}
    .fil0 {fill:#000000;fill-rule:nonzero}
   ]]>
  </style>
 </defs>
 <g id="Layer_x0020_1">
  <path class="fil0" d="M1644 2832l-459 0 -26 -203c-226,339 -756,354 -989,10 -200,-295 -219,-831 -82,-1159 113,-271 335,-444 634,-444 153,0 294,58 404,164l0 -856 518 56 0 2432zm-817 -324c116,0 216,-65 299,-194l0 -754c-141,-163 -364,-229 -502,-14 -112,173 -116,668 -11,841 49,81 120,121 214,121zm2708 -580c0,72 -3,134 -10,187l-1075 0c26,251 126,396 394,396 158,0 288,-66 416,-154l213 288c-203,162 -429,243 -679,243 -570,0 -875,-362 -875,-918 0,-502 271,-934 813,-934 545,0 803,377 803,892zm-508 -148c-4,-267 -98,-400 -282,-400 -238,0 -282,231 -298,423l580 0 0 -23zm1308 564c0,124 65,163 174,118l102 367c-97,40 -208,59 -335,59 -311,0 -459,-192 -459,-492l0 -1996 518 -56 0 2000zm472 488l0 -1740 518 0 0 1740 -518 0zm1263 0l-561 -1740 564 0 308 1347 321 -1347 528 0 -547 1740 -613 0zm2829 -904c0,72 -3,134 -10,187l-1075 0c26,251 126,396 393,396 158,0 289,-66 416,-154l214 288c-204,162 -430,243 -679,243 -571,0 -876,-362 -876,-918 0,-502 272,-934 814,-934 544,0 803,377 803,892zm-508 -148c-5,-267 -99,-400 -282,-400 -239,0 -282,231 -299,423l581 0 0 -23zm1750 -738c64,0 122,8 174,23l-82 502c-338,-79 -448,76 -518,397l0 868 -518 0 0 -1740 453 0 42 334c67,-205 219,-384 449,-384zm1407 1794c-150,483 -487,696 -981,724l-55 -364c271,-36 450,-97 560,-364l-177 0 -531 -1740 551 0 311 1409 341 -1409 535 0 -554 1744z"/>
  <path class="fil1 str0" d="M5079 101c217,0 393,176 393,393 0,218 -176,394 -393,394 -217,0 -393,-176 -393,-394 0,-217 176,-393 393,-393z"/>
 </g>
</svg>
